<svg width="20" height="20" viewBox="0 0 20 20" fill="none" xmlns="http://www.w3.org/2000/svg">
<g id="base icon">
<path id="Union" d="M10.0007 12.5684C9.87625 12.5684 9.75714 12.5468 9.64332 12.5038C9.52948 12.4608 9.42592 12.3926 9.33263 12.2993L5.50428 8.47098C5.32825 8.29496 5.24023 8.07394 5.24023 7.80794C5.24023 7.54194 5.32825 7.32093 5.50428 7.1449C5.6803 6.96887 5.90132 6.88086 6.16732 6.88086C6.43332 6.88086 6.65433 6.96887 6.83036 7.1449L10.0007 10.3152L13.1709 7.1449C13.347 6.96887 13.568 6.88086 13.834 6.88086C14.1 6.88086 14.321 6.96887 14.497 7.1449C14.6731 7.32093 14.7611 7.54194 14.7611 7.80794C14.7611 8.07394 14.6731 8.29496 14.497 8.47098L10.6687 12.2993C10.5754 12.3926 10.4718 12.4608 10.358 12.5038C10.2442 12.5468 10.1251 12.5684 10.0007 12.5684Z" fill="#139FDA"/>
</g>
</svg>
