<svg width="20" height="20" viewBox="0 0 20 20" fill="none" xmlns="http://www.w3.org/2000/svg">
<g id="base icon">
<path id="Union" d="M7.87695 13.4482C6.33318 13.4482 5.02536 12.9123 3.9535 11.8405C2.88163 10.7686 2.3457 9.46077 2.3457 7.91699C2.3457 6.37322 2.88163 5.0654 3.9535 3.99353C5.02536 2.92167 6.33318 2.38574 7.87695 2.38574C9.42073 2.38574 10.7286 2.92167 11.8004 3.99353C12.8723 5.0654 13.4082 6.37322 13.4082 7.91699C13.4082 8.53474 13.3143 9.11197 13.1265 9.64866C12.9387 10.1853 12.6848 10.6587 12.3647 11.0687L16.9915 15.7005C17.1676 15.8799 17.2556 16.1017 17.2556 16.366C17.2556 16.6304 17.1659 16.8506 16.9866 17.0266C16.8105 17.2026 16.5895 17.2906 16.3235 17.2906C16.0575 17.2906 15.8365 17.2026 15.6605 17.0266L11.0386 12.4048C10.6253 12.7248 10.1486 12.9787 9.6086 13.1665C9.0686 13.3543 8.49138 13.4482 7.87695 13.4482ZM7.87695 11.5524C8.88873 11.5524 9.74758 11.1995 10.4535 10.4935C11.1594 9.78762 11.5124 8.92877 11.5124 7.91699C11.5124 6.90522 11.1594 6.04637 10.4535 5.34045C9.74758 4.63453 8.88873 4.28158 7.87695 4.28158C6.86518 4.28158 6.00633 4.63453 5.30041 5.34045C4.59449 6.04637 4.24154 6.90522 4.24154 7.91699C4.24154 8.92877 4.59449 9.78762 5.30041 10.4935C6.00633 11.1995 6.86518 11.5524 7.87695 11.5524Z" fill="#139FDA"/>
</g>
</svg>
